<svg width="493.84999999999997px" height="137.6px" xmlns="http://www.w3.org/2000/svg" viewBox="3.075000000000017 6.200000000000003 493.84999999999997 137.6" style="background: rgba(0, 0, 0, 0);" preserveAspectRatio="xMidYMid"><defs><linearGradient id="editing-gradient-gradient" x1="0" x2="1" y1="0.5" y2="0.5" gradientUnits="objectBoundingBox"><stop offset="0" stop-color="#f0f"></stop><stop offset="1" stop-color="#0ff"></stop></linearGradient></defs><g><g transform="translate(73.70998191833496, 97.39999389648438)"><path d="M4.74 0L4.74-44.03L42.82-44.03L42.82-33.47L18.88-33.47L18.88-27.39L39.36-27.39L39.36-17.28L18.88-17.28L18.88-10.56L43.26-10.56L43.26 0L4.74 0ZM70.02-44.03L70.02-44.03Q93.12-44.03 93.12-22.02L93.12-22.02L93.12-22.02Q93.12 0 70.02 0L70.02 0L50.94 0L50.94-44.03L70.02-44.03ZM65.09-33.47L65.09-10.56L69.76-10.56L69.76-10.56Q78.66-10.56 78.66-20.10L78.66-20.10L78.66-23.94L78.66-23.94Q78.66-33.47 69.76-33.47L69.76-33.47L65.09-33.47ZM144.58-17.73L144.58-17.73Q144.58-8.70 138.88-3.97L138.88-3.97L138.88-3.97Q133.18 0.77 122.69 0.77L122.69 0.77L122.69 0.77Q112.19 0.77 106.46-3.97L106.46-3.97L106.46-3.97Q100.74-8.70 100.74-17.73L100.74-17.73L100.74-44.03L114.88-44.03L114.88-17.92L114.88-17.92Q114.88-14.21 116.86-12L116.86-12L116.86-12Q118.85-9.79 122.62-9.79L122.62-9.79L122.62-9.79Q126.40-9.79 128.42-12.03L128.42-12.03L128.42-12.03Q130.43-14.27 130.43-17.92L130.43-17.92L130.43-44.03L144.58-44.03L144.58-17.73ZM197.89 0L185.54 0L167.04-21.38L167.04 0L154.05 0L154.05-44.03L166.40-44.03L184.90-22.34L184.90-44.03L197.89-44.03L197.89 0ZM207.36 0L207.36-44.03L245.44-44.03L245.44-33.47L221.50-33.47L221.50-27.39L241.98-27.39L241.98-17.28L221.50-17.28L221.50-10.56L245.89-10.56L245.89 0L207.36 0ZM282.88-23.23L298.62 0L281.47 0L273.34-13.70L273.09-13.70L264.96 0L249.09 0L264.83-23.30L250.62-44.03L267.71-44.03L274.37-32.77L274.62-32.77L281.34-44.03L297.15-44.03L282.88-23.23ZM347.84 0L332.86 0L331.01-6.21L315.58-6.21L313.73 0L299.26 0L315.33-44.03L331.78-44.03L347.84 0ZM323.20-31.74L318.53-16.06L328.06-16.06L323.46-31.74L323.20-31.74Z" fill="url(#editing-gradient-gradient)"></path></g></g><style>text {
  font-size: 104px;
  font-family: Arial Black;
  dominant-baseline: central;
  text-anchor: middle;
}</style></svg>